<?xml version="1.0" encoding="UTF-8" standalone="no"?>
<svg
   width="88.810455mm"
   height="79.869118mm"
   viewBox="0 0 88.810457 79.869116"
   version="1.1"
   id="svg8"
   inkscape:version="1.1 (c68e22c387, 2021-05-23)"
   sodipodi:docname="HYDROLIB_logo_notext_mono_eroded.svg"
   inkscape:export-filename="D:\dam_ar\unstruc_plannen\2021\20210000_HYDROLIB\N\I. Promo material\logo\HYDROLIB_logo_tiny.png"
   inkscape:export-xdpi="12.08"
   inkscape:export-ydpi="12.08"
   xmlns:inkscape="http://www.inkscape.org/namespaces/inkscape"
   xmlns:sodipodi="http://sodipodi.sourceforge.net/DTD/sodipodi-0.dtd"
   xmlns="http://www.w3.org/2000/svg"
   xmlns:svg="http://www.w3.org/2000/svg"
   xmlns:rdf="http://www.w3.org/1999/02/22-rdf-syntax-ns#"
   xmlns:cc="http://creativecommons.org/ns#"
   xmlns:dc="http://purl.org/dc/elements/1.1/">
  <defs
     id="defs2">
    <marker
       style="overflow:visible"
       id="Arrow1Send"
       refX="0"
       refY="0"
       orient="auto"
       inkscape:stockid="Arrow1Send"
       inkscape:isstock="true">
      <path
         transform="matrix(-0.2,0,0,-0.2,-1.2,0)"
         style="fill:#02a462;fill-opacity:1;fill-rule:evenodd;stroke:#02a462;stroke-width:1pt;stroke-opacity:1"
         d="M 0,0 5,-5 -12.5,0 5,5 Z"
         id="path2260" />
    </marker>
    <marker
       style="overflow:visible"
       id="marker2765"
       refX="0"
       refY="0"
       orient="auto"
       inkscape:stockid="TriangleInS"
       inkscape:isstock="true">
      <path
         transform="scale(-0.2)"
         style="fill:#ff0000;fill-opacity:1;fill-rule:evenodd;stroke:#ff0000;stroke-width:1pt;stroke-opacity:1"
         d="M 5.77,0 -2.88,5 V -5 Z"
         id="path2763" />
    </marker>
    <marker
       style="overflow:visible"
       id="marker2755"
       refX="0"
       refY="0"
       orient="auto"
       inkscape:stockid="TriangleInS"
       inkscape:isstock="true">
      <path
         transform="scale(-0.2)"
         style="fill:#ff0000;fill-opacity:1;fill-rule:evenodd;stroke:#ff0000;stroke-width:1pt;stroke-opacity:1"
         d="M 5.77,0 -2.88,5 V -5 Z"
         id="path2753" />
    </marker>
    <marker
       style="overflow:visible"
       id="marker2745"
       refX="0"
       refY="0"
       orient="auto"
       inkscape:stockid="TriangleInS"
       inkscape:isstock="true">
      <path
         transform="scale(-0.2)"
         style="fill:#ff0000;fill-opacity:1;fill-rule:evenodd;stroke:#ff0000;stroke-width:1pt;stroke-opacity:1"
         d="M 5.77,0 -2.88,5 V -5 Z"
         id="path2743" />
    </marker>
    <marker
       style="overflow:visible"
       id="marker2553"
       refX="0"
       refY="0"
       orient="auto"
       inkscape:stockid="TriangleInM"
       inkscape:isstock="true">
      <path
         transform="scale(-0.4)"
         style="fill:#ff0000;fill-opacity:1;fill-rule:evenodd;stroke:#ff0000;stroke-width:1pt;stroke-opacity:1"
         d="M 5.77,0 -2.88,5 V -5 Z"
         id="path2551" />
    </marker>
    <marker
       style="overflow:visible"
       id="marker2543"
       refX="0"
       refY="0"
       orient="auto"
       inkscape:stockid="TriangleInM"
       inkscape:isstock="true">
      <path
         transform="scale(-0.4)"
         style="fill:#ff0000;fill-opacity:1;fill-rule:evenodd;stroke:#ff0000;stroke-width:1pt;stroke-opacity:1"
         d="M 5.77,0 -2.88,5 V -5 Z"
         id="path2541" />
    </marker>
    <marker
       style="overflow:visible"
       id="marker2533"
       refX="0"
       refY="0"
       orient="auto"
       inkscape:stockid="TriangleInM"
       inkscape:isstock="true">
      <path
         transform="scale(-0.4)"
         style="fill:#ff0000;fill-opacity:1;fill-rule:evenodd;stroke:#ff0000;stroke-width:1pt;stroke-opacity:1"
         d="M 5.77,0 -2.88,5 V -5 Z"
         id="path2531" />
    </marker>
    <marker
       style="overflow:visible"
       id="marker2229"
       refX="0"
       refY="0"
       orient="auto"
       inkscape:stockid="TriangleOutS"
       inkscape:isstock="true">
      <path
         transform="scale(0.2)"
         style="fill:#02a462;fill-opacity:1;fill-rule:evenodd;stroke:#02a462;stroke-width:1pt;stroke-opacity:1"
         d="M 5.77,0 -2.88,5 V -5 Z"
         id="path2227" />
    </marker>
    <marker
       style="overflow:visible"
       id="marker2219"
       refX="0"
       refY="0"
       orient="auto"
       inkscape:stockid="TriangleOutS"
       inkscape:isstock="true">
      <path
         transform="scale(0.2)"
         style="fill:#02a462;fill-opacity:1;fill-rule:evenodd;stroke:#02a462;stroke-width:1pt;stroke-opacity:1"
         d="M 5.77,0 -2.88,5 V -5 Z"
         id="path2217" />
    </marker>
    <marker
       style="overflow:visible"
       id="marker2209"
       refX="0"
       refY="0"
       orient="auto"
       inkscape:stockid="TriangleOutS"
       inkscape:isstock="true">
      <path
         transform="scale(0.2)"
         style="fill:#02a462;fill-opacity:1;fill-rule:evenodd;stroke:#02a462;stroke-width:1pt;stroke-opacity:1"
         d="M 5.77,0 -2.88,5 V -5 Z"
         id="path2207" />
    </marker>
    <marker
       style="overflow:visible"
       id="marker2047"
       refX="0"
       refY="0"
       orient="auto"
       inkscape:stockid="TriangleOutM"
       inkscape:isstock="true">
      <path
         transform="scale(0.4)"
         style="fill:#02a462;fill-opacity:1;fill-rule:evenodd;stroke:#02a462;stroke-width:1pt;stroke-opacity:1"
         d="M 5.77,0 -2.88,5 V -5 Z"
         id="path2045" />
    </marker>
    <marker
       style="overflow:visible"
       id="marker2037"
       refX="0"
       refY="0"
       orient="auto"
       inkscape:stockid="TriangleOutM"
       inkscape:isstock="true">
      <path
         transform="scale(0.4)"
         style="fill:#ff0000;fill-opacity:1;fill-rule:evenodd;stroke:#ff0000;stroke-width:1pt;stroke-opacity:1"
         d="M 5.77,0 -2.88,5 V -5 Z"
         id="path2035" />
    </marker>
    <marker
       style="overflow:visible"
       id="marker2027"
       refX="0"
       refY="0"
       orient="auto"
       inkscape:stockid="TriangleOutM"
       inkscape:isstock="true">
      <path
         transform="scale(0.4)"
         style="fill:#ff0000;fill-opacity:1;fill-rule:evenodd;stroke:#ff0000;stroke-width:1pt;stroke-opacity:1"
         d="M 5.77,0 -2.88,5 V -5 Z"
         id="path2025" />
    </marker>
    <marker
       style="overflow:visible"
       id="TriangleInM"
       refX="0"
       refY="0"
       orient="auto"
       inkscape:stockid="TriangleInM"
       inkscape:isstock="true">
      <path
         transform="scale(-0.4)"
         style="fill:#ff0000;fill-opacity:1;fill-rule:evenodd;stroke:#ff0000;stroke-width:1pt;stroke-opacity:1"
         d="M 5.77,0 -2.88,5 V -5 Z"
         id="path1031" />
    </marker>
    <marker
       style="overflow:visible"
       id="TriangleOutM"
       refX="0"
       refY="0"
       orient="auto"
       inkscape:stockid="TriangleOutM"
       inkscape:isstock="true">
      <path
         transform="scale(0.4)"
         style="fill:#ff0000;fill-opacity:1;fill-rule:evenodd;stroke:#ff0000;stroke-width:1pt;stroke-opacity:1"
         d="M 5.77,0 -2.88,5 V -5 Z"
         id="path1040" />
    </marker>
    <marker
       style="overflow:visible"
       id="marker1004"
       refX="0"
       refY="0"
       orient="auto"
       inkscape:stockid="DotS"
       inkscape:isstock="true">
      <path
         transform="matrix(0.2,0,0,0.2,1.48,0.2)"
         style="fill:#00a7ea;fill-opacity:1;fill-rule:evenodd;stroke:#00a7ea;stroke-width:1pt;stroke-opacity:1"
         d="m -2.5,-1 c 0,2.76 -2.24,5 -5,5 -2.76,0 -5,-2.24 -5,-5 0,-2.76 2.24,-5 5,-5 2.76,0 5,2.24 5,5 z"
         id="path1002" />
    </marker>
    <marker
       style="overflow:visible"
       id="marker911"
       refX="0"
       refY="0"
       orient="auto"
       inkscape:stockid="DotS"
       inkscape:isstock="true">
      <path
         transform="matrix(0.2,0,0,0.2,1.48,0.2)"
         style="fill:#02a462;fill-opacity:1;fill-rule:evenodd;stroke:#02a462;stroke-width:1pt;stroke-opacity:1"
         d="m -2.5,-1 c 0,2.76 -2.24,5 -5,5 -2.76,0 -5,-2.24 -5,-5 0,-2.76 2.24,-5 5,-5 2.76,0 5,2.24 5,5 z"
         id="path909" />
    </marker>
    <marker
       style="overflow:visible"
       id="DotL"
       refX="0"
       refY="0"
       orient="auto"
       inkscape:stockid="DotL"
       inkscape:isstock="true">
      <path
         transform="matrix(0.8,0,0,0.8,5.92,0.8)"
         style="fill:#00a7ea;fill-opacity:1;fill-rule:evenodd;stroke:#00a7ea;stroke-width:1pt;stroke-opacity:1"
         d="m -2.5,-1 c 0,2.76 -2.24,5 -5,5 -2.76,0 -5,-2.24 -5,-5 0,-2.76 2.24,-5 5,-5 2.76,0 5,2.24 5,5 z"
         id="path911" />
    </marker>
    <marker
       style="overflow:visible"
       id="DotS-8"
       refX="0"
       refY="0"
       orient="auto"
       inkscape:stockid="DotS"
       inkscape:isstock="true">
      <path
         transform="matrix(0.2,0,0,0.2,1.48,0.2)"
         style="fill:#00a7ea;fill-opacity:1;fill-rule:evenodd;stroke:#00a7ea;stroke-width:1pt;stroke-opacity:1"
         d="m -2.5,-1 c 0,2.76 -2.24,5 -5,5 -2.76,0 -5,-2.24 -5,-5 0,-2.76 2.24,-5 5,-5 2.76,0 5,2.24 5,5 z"
         id="path917-9" />
    </marker>
    <marker
       style="overflow:visible"
       id="DotS-2"
       refX="0"
       refY="0"
       orient="auto"
       inkscape:stockid="DotS"
       inkscape:isstock="true">
      <path
         transform="matrix(0.2,0,0,0.2,1.48,0.2)"
         style="fill:#00a7ea;fill-opacity:1;fill-rule:evenodd;stroke:#00a7ea;stroke-width:1pt;stroke-opacity:1"
         d="m -2.5,-1 c 0,2.76 -2.24,5 -5,5 -2.76,0 -5,-2.24 -5,-5 0,-2.76 2.24,-5 5,-5 2.76,0 5,2.24 5,5 z"
         id="path917-3" />
    </marker>
    <marker
       style="overflow:visible"
       id="DotS-20"
       refX="0"
       refY="0"
       orient="auto"
       inkscape:stockid="DotS"
       inkscape:isstock="true">
      <path
         transform="matrix(0.2,0,0,0.2,1.48,0.2)"
         style="fill:#00a7ea;fill-opacity:1;fill-rule:evenodd;stroke:#00a7ea;stroke-width:1pt;stroke-opacity:1"
         d="m -2.5,-1 c 0,2.76 -2.24,5 -5,5 -2.76,0 -5,-2.24 -5,-5 0,-2.76 2.24,-5 5,-5 2.76,0 5,2.24 5,5 z"
         id="path917-5" />
    </marker>
    <marker
       style="overflow:visible"
       id="TriangleOutM-2"
       refX="0"
       refY="0"
       orient="auto"
       inkscape:stockid="TriangleOutM"
       inkscape:isstock="true">
      <path
         transform="scale(0.4)"
         style="fill:#ff0000;fill-opacity:1;fill-rule:evenodd;stroke:#ff0000;stroke-width:1pt;stroke-opacity:1"
         d="M 5.77,0 -2.88,5 V -5 Z"
         id="path1040-5" />
    </marker>
    <marker
       style="overflow:visible"
       id="TriangleInM-6"
       refX="0"
       refY="0"
       orient="auto"
       inkscape:stockid="TriangleInM"
       inkscape:isstock="true">
      <path
         transform="scale(-0.4)"
         style="fill:#ff0000;fill-opacity:1;fill-rule:evenodd;stroke:#ff0000;stroke-width:1pt;stroke-opacity:1"
         d="M 5.77,0 -2.88,5 V -5 Z"
         id="path1031-8" />
    </marker>
    <marker
       style="overflow:visible"
       id="marker1004-9"
       refX="0"
       refY="0"
       orient="auto"
       inkscape:stockid="DotS"
       inkscape:isstock="true">
      <path
         transform="matrix(0.2,0,0,0.2,1.48,0.2)"
         style="fill:#02a462;fill-opacity:1;fill-rule:evenodd;stroke:#02a462;stroke-width:1pt;stroke-opacity:1"
         d="m -2.5,-1 c 0,2.76 -2.24,5 -5,5 -2.76,0 -5,-2.24 -5,-5 0,-2.76 2.24,-5 5,-5 2.76,0 5,2.24 5,5 z"
         id="path1002-3" />
    </marker>
    <marker
       style="overflow:visible"
       id="marker1004-9-1"
       refX="0"
       refY="0"
       orient="auto"
       inkscape:stockid="DotS"
       inkscape:isstock="true">
      <path
         transform="matrix(0.2,0,0,0.2,1.48,0.2)"
         style="fill:#00a7ea;fill-opacity:1;fill-rule:evenodd;stroke:#00a7ea;stroke-width:1pt;stroke-opacity:1"
         d="m -2.5,-1 c 0,2.76 -2.24,5 -5,5 -2.76,0 -5,-2.24 -5,-5 0,-2.76 2.24,-5 5,-5 2.76,0 5,2.24 5,5 z"
         id="path1002-3-7" />
    </marker>
    <marker
       style="overflow:visible"
       id="marker1004-9-7"
       refX="0"
       refY="0"
       orient="auto"
       inkscape:stockid="DotS"
       inkscape:isstock="true">
      <path
         transform="matrix(0.2,0,0,0.2,1.48,0.2)"
         style="fill:#00a7ea;fill-opacity:1;fill-rule:evenodd;stroke:#00a7ea;stroke-width:1pt;stroke-opacity:1"
         d="m -2.5,-1 c 0,2.76 -2.24,5 -5,5 -2.76,0 -5,-2.24 -5,-5 0,-2.76 2.24,-5 5,-5 2.76,0 5,2.24 5,5 z"
         id="path1002-3-5" />
    </marker>
    <marker
       style="overflow:visible"
       id="marker1004-9-1-3"
       refX="0"
       refY="0"
       orient="auto"
       inkscape:stockid="DotS"
       inkscape:isstock="true">
      <path
         transform="matrix(0.2,0,0,0.2,1.48,0.2)"
         style="fill:#02a462;fill-opacity:1;fill-rule:evenodd;stroke:#02a462;stroke-width:1pt;stroke-opacity:1"
         d="m -2.5,-1 c 0,2.76 -2.24,5 -5,5 -2.76,0 -5,-2.24 -5,-5 0,-2.76 2.24,-5 5,-5 2.76,0 5,2.24 5,5 z"
         id="path1002-3-7-9" />
    </marker>
    <marker
       style="overflow:visible"
       id="marker1004-9-5"
       refX="0"
       refY="0"
       orient="auto"
       inkscape:stockid="DotS"
       inkscape:isstock="true">
      <path
         transform="matrix(0.2,0,0,0.2,1.48,0.2)"
         style="fill:#00a7ea;fill-opacity:1;fill-rule:evenodd;stroke:#00a7ea;stroke-width:1pt;stroke-opacity:1"
         d="m -2.5,-1 c 0,2.76 -2.24,5 -5,5 -2.76,0 -5,-2.24 -5,-5 0,-2.76 2.24,-5 5,-5 2.76,0 5,2.24 5,5 z"
         id="path1002-3-8" />
    </marker>
    <marker
       style="overflow:visible"
       id="marker1004-9-1-9"
       refX="0"
       refY="0"
       orient="auto"
       inkscape:stockid="DotS"
       inkscape:isstock="true">
      <path
         transform="matrix(0.2,0,0,0.2,1.48,0.2)"
         style="fill:#02a462;fill-opacity:1;fill-rule:evenodd;stroke:#02a462;stroke-width:1pt;stroke-opacity:1"
         d="m -2.5,-1 c 0,2.76 -2.24,5 -5,5 -2.76,0 -5,-2.24 -5,-5 0,-2.76 2.24,-5 5,-5 2.76,0 5,2.24 5,5 z"
         id="path1002-3-7-3" />
    </marker>
    <marker
       style="overflow:visible"
       id="marker911-4"
       refX="0"
       refY="0"
       orient="auto"
       inkscape:stockid="DotS"
       inkscape:isstock="true">
      <path
         transform="matrix(0.2,0,0,0.2,1.48,0.2)"
         style="fill:#00a7ea;fill-opacity:1;fill-rule:evenodd;stroke:#00a7ea;stroke-width:1pt;stroke-opacity:1"
         d="m -2.5,-1 c 0,2.76 -2.24,5 -5,5 -2.76,0 -5,-2.24 -5,-5 0,-2.76 2.24,-5 5,-5 2.76,0 5,2.24 5,5 z"
         id="path909-0" />
    </marker>
    <marker
       style="overflow:visible"
       id="marker1004-9-1-35"
       refX="0"
       refY="0"
       orient="auto"
       inkscape:stockid="DotS"
       inkscape:isstock="true">
      <path
         transform="matrix(0.2,0,0,0.2,1.48,0.2)"
         style="fill:#00a7ea;fill-opacity:1;fill-rule:evenodd;stroke:#00a7ea;stroke-width:1pt;stroke-opacity:1"
         d="m -2.5,-1 c 0,2.76 -2.24,5 -5,5 -2.76,0 -5,-2.24 -5,-5 0,-2.76 2.24,-5 5,-5 2.76,0 5,2.24 5,5 z"
         id="path1002-3-7-0" />
    </marker>
    <marker
       style="overflow:visible"
       id="marker1004-9-1-97"
       refX="0"
       refY="0"
       orient="auto"
       inkscape:stockid="DotS"
       inkscape:isstock="true">
      <path
         transform="matrix(0.2,0,0,0.2,1.48,0.2)"
         style="fill:#00a7ea;fill-opacity:1;fill-rule:evenodd;stroke:#00a7ea;stroke-width:1pt;stroke-opacity:1"
         d="m -2.5,-1 c 0,2.76 -2.24,5 -5,5 -2.76,0 -5,-2.24 -5,-5 0,-2.76 2.24,-5 5,-5 2.76,0 5,2.24 5,5 z"
         id="path1002-3-7-2" />
    </marker>
    <marker
       style="overflow:visible"
       id="marker911-4-0"
       refX="0"
       refY="0"
       orient="auto"
       inkscape:stockid="DotS"
       inkscape:isstock="true">
      <path
         transform="matrix(0.2,0,0,0.2,1.48,0.2)"
         style="fill:#00a7ea;fill-opacity:1;fill-rule:evenodd;stroke:#00a7ea;stroke-width:1pt;stroke-opacity:1"
         d="m -2.5,-1 c 0,2.76 -2.24,5 -5,5 -2.76,0 -5,-2.24 -5,-5 0,-2.76 2.24,-5 5,-5 2.76,0 5,2.24 5,5 z"
         id="path909-0-6" />
    </marker>
    <marker
       style="overflow:visible"
       id="marker1004-9-1-35-6"
       refX="0"
       refY="0"
       orient="auto"
       inkscape:stockid="DotS"
       inkscape:isstock="true">
      <path
         transform="matrix(0.2,0,0,0.2,1.48,0.2)"
         style="fill:#00a7ea;fill-opacity:1;fill-rule:evenodd;stroke:#00a7ea;stroke-width:1pt;stroke-opacity:1"
         d="m -2.5,-1 c 0,2.76 -2.24,5 -5,5 -2.76,0 -5,-2.24 -5,-5 0,-2.76 2.24,-5 5,-5 2.76,0 5,2.24 5,5 z"
         id="path1002-3-7-0-4" />
    </marker>
    <marker
       style="overflow:visible"
       id="marker1004-9-1-35-6-9"
       refX="0"
       refY="0"
       orient="auto"
       inkscape:stockid="DotS"
       inkscape:isstock="true">
      <path
         transform="matrix(0.2,0,0,0.2,1.48,0.2)"
         style="fill:#00a7ea;fill-opacity:1;fill-rule:evenodd;stroke:#00a7ea;stroke-width:1pt;stroke-opacity:1"
         d="m -2.5,-1 c 0,2.76 -2.24,5 -5,5 -2.76,0 -5,-2.24 -5,-5 0,-2.76 2.24,-5 5,-5 2.76,0 5,2.24 5,5 z"
         id="path1002-3-7-0-4-6" />
    </marker>
    <marker
       style="overflow:visible"
       id="marker1004-9-1-35-6-9-0"
       refX="0"
       refY="0"
       orient="auto"
       inkscape:stockid="DotS"
       inkscape:isstock="true">
      <path
         transform="matrix(0.2,0,0,0.2,1.48,0.2)"
         style="fill:#00a7ea;fill-opacity:1;fill-rule:evenodd;stroke:#00a7ea;stroke-width:1pt;stroke-opacity:1"
         d="m -2.5,-1 c 0,2.76 -2.24,5 -5,5 -2.76,0 -5,-2.24 -5,-5 0,-2.76 2.24,-5 5,-5 2.76,0 5,2.24 5,5 z"
         id="path1002-3-7-0-4-6-0" />
    </marker>
    <marker
       style="overflow:visible"
       id="marker1004-9-5-8"
       refX="0"
       refY="0"
       orient="auto"
       inkscape:stockid="DotS"
       inkscape:isstock="true">
      <path
         transform="matrix(0.2,0,0,0.2,1.48,0.2)"
         style="fill:#00a7ea;fill-opacity:1;fill-rule:evenodd;stroke:#00a7ea;stroke-width:1pt;stroke-opacity:1"
         d="m -2.5,-1 c 0,2.76 -2.24,5 -5,5 -2.76,0 -5,-2.24 -5,-5 0,-2.76 2.24,-5 5,-5 2.76,0 5,2.24 5,5 z"
         id="path1002-3-8-3" />
    </marker>
    <marker
       style="overflow:visible"
       id="marker1004-9-5-8-5"
       refX="0"
       refY="0"
       orient="auto"
       inkscape:stockid="DotS"
       inkscape:isstock="true">
      <path
         transform="matrix(0.2,0,0,0.2,1.48,0.2)"
         style="fill:#02a462;fill-opacity:1;fill-rule:evenodd;stroke:#02a462;stroke-width:1pt;stroke-opacity:1"
         d="m -2.5,-1 c 0,2.76 -2.24,5 -5,5 -2.76,0 -5,-2.24 -5,-5 0,-2.76 2.24,-5 5,-5 2.76,0 5,2.24 5,5 z"
         id="path1002-3-8-3-0" />
    </marker>
  </defs>
  <sodipodi:namedview
     id="base"
     pagecolor="#ffffff"
     bordercolor="#666666"
     borderopacity="1.0"
     inkscape:pageopacity="0.0"
     inkscape:pageshadow="2"
     inkscape:zoom="1.1504813"
     inkscape:cx="307.2627"
     inkscape:cy="260.76042"
     inkscape:document-units="mm"
     inkscape:current-layer="layer17"
     inkscape:document-rotation="0"
     showgrid="false"
     inkscape:window-width="1920"
     inkscape:window-height="1028"
     inkscape:window-x="-6"
     inkscape:window-y="-6"
     inkscape:window-maximized="1"
     inkscape:snap-global="true"
     inkscape:snap-midpoints="false"
     inkscape:snap-smooth-nodes="true"
     showguides="true"
     inkscape:guide-bbox="true"
     inkscape:pagecheckerboard="true" />
  <metadata
     id="metadata5">
    <rdf:RDF>
      <cc:Work
         rdf:about="">
        <dc:format>image/svg+xml</dc:format>
        <dc:type
           rdf:resource="http://purl.org/dc/dcmitype/StillImage" />
      </cc:Work>
    </rdf:RDF>
  </metadata>
  <g
     inkscape:groupmode="layer"
     id="layer7"
     inkscape:label="HYDROLIB full logo"
     style="display:inline"
     transform="translate(231.80676,-36.154319)">
    <g
       inkscape:groupmode="layer"
       id="layer21"
       inkscape:label="arrow right S">
      <g
         inkscape:groupmode="layer"
         id="layer19"
         inkscape:label="arrow right start stroke"
         style="display:inline" />
      <g
         inkscape:groupmode="layer"
         id="layer17"
         inkscape:label="arrow right start"
         style="display:inline">
        <path
           id="path4315"
           style="color:#000000;fill:#ffffff;stroke-width:3.77953;-inkscape-stroke:none"
           d="M 159.79883 32.507812 L 172.53906 43.6875 L 143.54492 69.09375 C 152.08064 72.61133 159.96585 77.708045 166.625 84.367188 C 179.88464 97.626791 187.32422 115.59215 187.32422 134.34375 L 187.32422 142.3457 L 187.32422 165.38281 L 187.32422 173.38672 L 187.32422 234.83203 C 187.32422 244.95592 188.88186 256.81449 198.39648 265.53711 C 207.96511 274.30917 218.6601 274.83349 228.41797 274.83398 L 284.66406 274.87891 L 284.65039 296.02539 L 331.6543 254.84375 L 284.71875 213.66016 L 284.69922 234.80859 L 227.39258 234.77148 L 227.39258 173.38672 L 227.39258 144.23633 L 227.39062 144.23633 L 227.39062 134.34375 C 227.39062 104.98177 215.71903 76.797122 194.95703 56.035156 C 184.79029 45.868409 172.79326 38.008673 159.79883 32.507812 z "
           transform="matrix(0.26458333,0,0,0.26458333,-231.80676,36.154319)" />
      </g>
    </g>
    <g
       inkscape:groupmode="layer"
       id="layer14"
       inkscape:label="arrow left"
       style="display:inline">
      <path
         id="path4331"
         style="color:#000000;fill:#ffffff;stroke-width:3.77953;-inkscape-stroke:none"
         d="M 119.47656 4.1660156 L 119.44531 23.652344 L 116.80664 23.652344 C 77.238804 23.652344 40.682299 44.756755 20.898438 79.023438 C 8.5846989 100.35146 3.9647737 124.74817 6.9941406 148.39648 L 10.367188 131.46094 L 46.910156 143.88477 C 44.807756 128.61863 47.639596 112.83257 55.597656 99.048828 C 68.217385 77.190913 91.547059 63.72045 116.78516 63.712891 L 119.42773 63.712891 L 119.41211 83.199219 L 164.51758 43.683594 L 119.47656 4.1660156 z "
         transform="matrix(0.26458333,0,0,0.26458333,-231.80676,36.154319)" />
    </g>
    <g
       inkscape:groupmode="layer"
       id="layer12"
       inkscape:label="arrow bot"
       style="display:inline">
      <path
         id="path4323"
         style="color:#000000;fill:#ffffff;stroke-width:3.77953;-inkscape-stroke:none"
         d="M 14.373047 138.4043 L 2.6640625 197.17773 L 19.570312 187.46094 L 20.886719 189.74414 L 20.886719 189.74609 C 39.434372 221.87047 72.717733 242.42668 109.40625 244.87109 C 110.62976 244.95273 111.85631 245.01387 113.08594 245.05469 C 114.31587 245.09626 115.55045 245.11523 116.78711 245.11523 C 117.91224 245.11523 119.04067 245.09456 120.16992 245.06055 C 120.33543 245.05677 120.49757 245.0487 120.6582 245.04492 C 121.80276 245.00486 122.94243 244.94983 124.07617 244.875 L 124.11719 244.87109 L 124.13672 244.87109 L 124.14453 244.86914 L 124.16406 244.86719 L 124.18555 244.86719 C 145.33129 243.45315 165.31765 235.98071 182.02539 223.77734 C 182.00649 209.90142 181.98155 188.05568 182.03711 175.09375 L 176.47266 171.88086 C 163.5805 192.39035 141.14415 205.05469 116.78906 205.05469 C 91.552968 205.05469 68.228246 191.58822 55.601562 169.74023 L 54.255859 167.44141 L 71.150391 157.70898 L 14.373047 138.4043 z "
         transform="matrix(0.26458333,0,0,0.26458333,-231.80676,36.154319)" />
    </g>
    <g
       inkscape:groupmode="layer"
       id="layer22"
       inkscape:label="arrow right E"
       style="display:inline">
      <g
         inkscape:groupmode="layer"
         id="layer20"
         inkscape:label="arrow right end stroke"
         style="display:inline" />
      <g
         inkscape:groupmode="layer"
         id="layer10"
         inkscape:label="arrow right head"
         style="display:inline" />
      <g
         inkscape:groupmode="layer"
         id="layer18"
         inkscape:label="arrow right end"
         style="display:inline" />
    </g>
    <text
       xml:space="preserve"
       style="font-style:normal;font-weight:normal;font-size:10.5833px;line-height:1.25;font-family:sans-serif;fill:#000000;fill-opacity:1;stroke:none;stroke-width:0.264583"
       x="-144.99167"
       y="137.58333"
       id="text6833"><tspan
         sodipodi:role="line"
         id="tspan6831"
         x="-144.99167"
         y="137.58333"
         style="stroke-width:0.264583" /></text>
  </g>
</svg>
