<?xml version="1.0" encoding="UTF-8" standalone="no"?>
<svg
   width="315.47842mm"
   height="80.752258mm"
   viewBox="0 0 315.47843 80.752257"
   version="1.1"
   id="svg8"
   inkscape:version="1.1 (c68e22c387, 2021-05-23)"
   sodipodi:docname="HYDROLIB_logo_paths.svg"
   inkscape:export-filename="D:\dam_ar\unstruc_plannen\2021\20210000_HYDROLIB\N\I. Promo material\logo\HYDROLIB_logo_tiny.png"
   inkscape:export-xdpi="12.08"
   inkscape:export-ydpi="12.08"
   xmlns:inkscape="http://www.inkscape.org/namespaces/inkscape"
   xmlns:sodipodi="http://sodipodi.sourceforge.net/DTD/sodipodi-0.dtd"
   xmlns="http://www.w3.org/2000/svg"
   xmlns:svg="http://www.w3.org/2000/svg"
   xmlns:rdf="http://www.w3.org/1999/02/22-rdf-syntax-ns#"
   xmlns:cc="http://creativecommons.org/ns#"
   xmlns:dc="http://purl.org/dc/elements/1.1/">
  <defs
     id="defs2">
    <marker
       style="overflow:visible"
       id="Arrow1Send"
       refX="0"
       refY="0"
       orient="auto"
       inkscape:stockid="Arrow1Send"
       inkscape:isstock="true">
      <path
         transform="matrix(-0.2,0,0,-0.2,-1.2,0)"
         style="fill:#02a462;fill-opacity:1;fill-rule:evenodd;stroke:#02a462;stroke-width:1pt;stroke-opacity:1"
         d="M 0,0 5,-5 -12.5,0 5,5 Z"
         id="path2260" />
    </marker>
    <marker
       style="overflow:visible"
       id="marker2765"
       refX="0"
       refY="0"
       orient="auto"
       inkscape:stockid="TriangleInS"
       inkscape:isstock="true">
      <path
         transform="scale(-0.2)"
         style="fill:#ff0000;fill-opacity:1;fill-rule:evenodd;stroke:#ff0000;stroke-width:1pt;stroke-opacity:1"
         d="M 5.77,0 -2.88,5 V -5 Z"
         id="path2763" />
    </marker>
    <marker
       style="overflow:visible"
       id="marker2755"
       refX="0"
       refY="0"
       orient="auto"
       inkscape:stockid="TriangleInS"
       inkscape:isstock="true">
      <path
         transform="scale(-0.2)"
         style="fill:#ff0000;fill-opacity:1;fill-rule:evenodd;stroke:#ff0000;stroke-width:1pt;stroke-opacity:1"
         d="M 5.77,0 -2.88,5 V -5 Z"
         id="path2753" />
    </marker>
    <marker
       style="overflow:visible"
       id="marker2745"
       refX="0"
       refY="0"
       orient="auto"
       inkscape:stockid="TriangleInS"
       inkscape:isstock="true">
      <path
         transform="scale(-0.2)"
         style="fill:#ff0000;fill-opacity:1;fill-rule:evenodd;stroke:#ff0000;stroke-width:1pt;stroke-opacity:1"
         d="M 5.77,0 -2.88,5 V -5 Z"
         id="path2743" />
    </marker>
    <marker
       style="overflow:visible"
       id="marker2553"
       refX="0"
       refY="0"
       orient="auto"
       inkscape:stockid="TriangleInM"
       inkscape:isstock="true">
      <path
         transform="scale(-0.4)"
         style="fill:#ff0000;fill-opacity:1;fill-rule:evenodd;stroke:#ff0000;stroke-width:1pt;stroke-opacity:1"
         d="M 5.77,0 -2.88,5 V -5 Z"
         id="path2551" />
    </marker>
    <marker
       style="overflow:visible"
       id="marker2543"
       refX="0"
       refY="0"
       orient="auto"
       inkscape:stockid="TriangleInM"
       inkscape:isstock="true">
      <path
         transform="scale(-0.4)"
         style="fill:#ff0000;fill-opacity:1;fill-rule:evenodd;stroke:#ff0000;stroke-width:1pt;stroke-opacity:1"
         d="M 5.77,0 -2.88,5 V -5 Z"
         id="path2541" />
    </marker>
    <marker
       style="overflow:visible"
       id="marker2533"
       refX="0"
       refY="0"
       orient="auto"
       inkscape:stockid="TriangleInM"
       inkscape:isstock="true">
      <path
         transform="scale(-0.4)"
         style="fill:#ff0000;fill-opacity:1;fill-rule:evenodd;stroke:#ff0000;stroke-width:1pt;stroke-opacity:1"
         d="M 5.77,0 -2.88,5 V -5 Z"
         id="path2531" />
    </marker>
    <marker
       style="overflow:visible"
       id="marker2229"
       refX="0"
       refY="0"
       orient="auto"
       inkscape:stockid="TriangleOutS"
       inkscape:isstock="true">
      <path
         transform="scale(0.2)"
         style="fill:#02a462;fill-opacity:1;fill-rule:evenodd;stroke:#02a462;stroke-width:1pt;stroke-opacity:1"
         d="M 5.77,0 -2.88,5 V -5 Z"
         id="path2227" />
    </marker>
    <marker
       style="overflow:visible"
       id="marker2219"
       refX="0"
       refY="0"
       orient="auto"
       inkscape:stockid="TriangleOutS"
       inkscape:isstock="true">
      <path
         transform="scale(0.2)"
         style="fill:#02a462;fill-opacity:1;fill-rule:evenodd;stroke:#02a462;stroke-width:1pt;stroke-opacity:1"
         d="M 5.77,0 -2.88,5 V -5 Z"
         id="path2217" />
    </marker>
    <marker
       style="overflow:visible"
       id="marker2209"
       refX="0"
       refY="0"
       orient="auto"
       inkscape:stockid="TriangleOutS"
       inkscape:isstock="true">
      <path
         transform="scale(0.2)"
         style="fill:#02a462;fill-opacity:1;fill-rule:evenodd;stroke:#02a462;stroke-width:1pt;stroke-opacity:1"
         d="M 5.77,0 -2.88,5 V -5 Z"
         id="path2207" />
    </marker>
    <marker
       style="overflow:visible"
       id="marker2047"
       refX="0"
       refY="0"
       orient="auto"
       inkscape:stockid="TriangleOutM"
       inkscape:isstock="true">
      <path
         transform="scale(0.4)"
         style="fill:#02a462;fill-opacity:1;fill-rule:evenodd;stroke:#02a462;stroke-width:1pt;stroke-opacity:1"
         d="M 5.77,0 -2.88,5 V -5 Z"
         id="path2045" />
    </marker>
    <marker
       style="overflow:visible"
       id="marker2037"
       refX="0"
       refY="0"
       orient="auto"
       inkscape:stockid="TriangleOutM"
       inkscape:isstock="true">
      <path
         transform="scale(0.4)"
         style="fill:#ff0000;fill-opacity:1;fill-rule:evenodd;stroke:#ff0000;stroke-width:1pt;stroke-opacity:1"
         d="M 5.77,0 -2.88,5 V -5 Z"
         id="path2035" />
    </marker>
    <marker
       style="overflow:visible"
       id="marker2027"
       refX="0"
       refY="0"
       orient="auto"
       inkscape:stockid="TriangleOutM"
       inkscape:isstock="true">
      <path
         transform="scale(0.4)"
         style="fill:#ff0000;fill-opacity:1;fill-rule:evenodd;stroke:#ff0000;stroke-width:1pt;stroke-opacity:1"
         d="M 5.77,0 -2.88,5 V -5 Z"
         id="path2025" />
    </marker>
    <marker
       style="overflow:visible"
       id="TriangleInM"
       refX="0"
       refY="0"
       orient="auto"
       inkscape:stockid="TriangleInM"
       inkscape:isstock="true">
      <path
         transform="scale(-0.4)"
         style="fill:#ff0000;fill-opacity:1;fill-rule:evenodd;stroke:#ff0000;stroke-width:1pt;stroke-opacity:1"
         d="M 5.77,0 -2.88,5 V -5 Z"
         id="path1031" />
    </marker>
    <marker
       style="overflow:visible"
       id="TriangleOutM"
       refX="0"
       refY="0"
       orient="auto"
       inkscape:stockid="TriangleOutM"
       inkscape:isstock="true">
      <path
         transform="scale(0.4)"
         style="fill:#ff0000;fill-opacity:1;fill-rule:evenodd;stroke:#ff0000;stroke-width:1pt;stroke-opacity:1"
         d="M 5.77,0 -2.88,5 V -5 Z"
         id="path1040" />
    </marker>
    <marker
       style="overflow:visible"
       id="marker1004"
       refX="0"
       refY="0"
       orient="auto"
       inkscape:stockid="DotS"
       inkscape:isstock="true">
      <path
         transform="matrix(0.2,0,0,0.2,1.48,0.2)"
         style="fill:#00a7ea;fill-opacity:1;fill-rule:evenodd;stroke:#00a7ea;stroke-width:1pt;stroke-opacity:1"
         d="m -2.5,-1 c 0,2.76 -2.24,5 -5,5 -2.76,0 -5,-2.24 -5,-5 0,-2.76 2.24,-5 5,-5 2.76,0 5,2.24 5,5 z"
         id="path1002" />
    </marker>
    <marker
       style="overflow:visible"
       id="marker911"
       refX="0"
       refY="0"
       orient="auto"
       inkscape:stockid="DotS"
       inkscape:isstock="true">
      <path
         transform="matrix(0.2,0,0,0.2,1.48,0.2)"
         style="fill:#02a462;fill-opacity:1;fill-rule:evenodd;stroke:#02a462;stroke-width:1pt;stroke-opacity:1"
         d="m -2.5,-1 c 0,2.76 -2.24,5 -5,5 -2.76,0 -5,-2.24 -5,-5 0,-2.76 2.24,-5 5,-5 2.76,0 5,2.24 5,5 z"
         id="path909" />
    </marker>
    <marker
       style="overflow:visible"
       id="DotL"
       refX="0"
       refY="0"
       orient="auto"
       inkscape:stockid="DotL"
       inkscape:isstock="true">
      <path
         transform="matrix(0.8,0,0,0.8,5.92,0.8)"
         style="fill:#00a7ea;fill-opacity:1;fill-rule:evenodd;stroke:#00a7ea;stroke-width:1pt;stroke-opacity:1"
         d="m -2.5,-1 c 0,2.76 -2.24,5 -5,5 -2.76,0 -5,-2.24 -5,-5 0,-2.76 2.24,-5 5,-5 2.76,0 5,2.24 5,5 z"
         id="path911" />
    </marker>
    <marker
       style="overflow:visible"
       id="DotS-8"
       refX="0"
       refY="0"
       orient="auto"
       inkscape:stockid="DotS"
       inkscape:isstock="true">
      <path
         transform="matrix(0.2,0,0,0.2,1.48,0.2)"
         style="fill:#00a7ea;fill-opacity:1;fill-rule:evenodd;stroke:#00a7ea;stroke-width:1pt;stroke-opacity:1"
         d="m -2.5,-1 c 0,2.76 -2.24,5 -5,5 -2.76,0 -5,-2.24 -5,-5 0,-2.76 2.24,-5 5,-5 2.76,0 5,2.24 5,5 z"
         id="path917-9" />
    </marker>
    <marker
       style="overflow:visible"
       id="DotS-2"
       refX="0"
       refY="0"
       orient="auto"
       inkscape:stockid="DotS"
       inkscape:isstock="true">
      <path
         transform="matrix(0.2,0,0,0.2,1.48,0.2)"
         style="fill:#00a7ea;fill-opacity:1;fill-rule:evenodd;stroke:#00a7ea;stroke-width:1pt;stroke-opacity:1"
         d="m -2.5,-1 c 0,2.76 -2.24,5 -5,5 -2.76,0 -5,-2.24 -5,-5 0,-2.76 2.24,-5 5,-5 2.76,0 5,2.24 5,5 z"
         id="path917-3" />
    </marker>
    <marker
       style="overflow:visible"
       id="DotS-20"
       refX="0"
       refY="0"
       orient="auto"
       inkscape:stockid="DotS"
       inkscape:isstock="true">
      <path
         transform="matrix(0.2,0,0,0.2,1.48,0.2)"
         style="fill:#00a7ea;fill-opacity:1;fill-rule:evenodd;stroke:#00a7ea;stroke-width:1pt;stroke-opacity:1"
         d="m -2.5,-1 c 0,2.76 -2.24,5 -5,5 -2.76,0 -5,-2.24 -5,-5 0,-2.76 2.24,-5 5,-5 2.76,0 5,2.24 5,5 z"
         id="path917-5" />
    </marker>
    <marker
       style="overflow:visible"
       id="TriangleOutM-2"
       refX="0"
       refY="0"
       orient="auto"
       inkscape:stockid="TriangleOutM"
       inkscape:isstock="true">
      <path
         transform="scale(0.4)"
         style="fill:#ff0000;fill-opacity:1;fill-rule:evenodd;stroke:#ff0000;stroke-width:1pt;stroke-opacity:1"
         d="M 5.77,0 -2.88,5 V -5 Z"
         id="path1040-5" />
    </marker>
    <marker
       style="overflow:visible"
       id="TriangleInM-6"
       refX="0"
       refY="0"
       orient="auto"
       inkscape:stockid="TriangleInM"
       inkscape:isstock="true">
      <path
         transform="scale(-0.4)"
         style="fill:#ff0000;fill-opacity:1;fill-rule:evenodd;stroke:#ff0000;stroke-width:1pt;stroke-opacity:1"
         d="M 5.77,0 -2.88,5 V -5 Z"
         id="path1031-8" />
    </marker>
    <marker
       style="overflow:visible"
       id="marker1004-9"
       refX="0"
       refY="0"
       orient="auto"
       inkscape:stockid="DotS"
       inkscape:isstock="true">
      <path
         transform="matrix(0.2,0,0,0.2,1.48,0.2)"
         style="fill:#02a462;fill-opacity:1;fill-rule:evenodd;stroke:#02a462;stroke-width:1pt;stroke-opacity:1"
         d="m -2.5,-1 c 0,2.76 -2.24,5 -5,5 -2.76,0 -5,-2.24 -5,-5 0,-2.76 2.24,-5 5,-5 2.76,0 5,2.24 5,5 z"
         id="path1002-3" />
    </marker>
    <marker
       style="overflow:visible"
       id="marker1004-9-1"
       refX="0"
       refY="0"
       orient="auto"
       inkscape:stockid="DotS"
       inkscape:isstock="true">
      <path
         transform="matrix(0.2,0,0,0.2,1.48,0.2)"
         style="fill:#00a7ea;fill-opacity:1;fill-rule:evenodd;stroke:#00a7ea;stroke-width:1pt;stroke-opacity:1"
         d="m -2.5,-1 c 0,2.76 -2.24,5 -5,5 -2.76,0 -5,-2.24 -5,-5 0,-2.76 2.24,-5 5,-5 2.76,0 5,2.24 5,5 z"
         id="path1002-3-7" />
    </marker>
    <marker
       style="overflow:visible"
       id="marker1004-9-7"
       refX="0"
       refY="0"
       orient="auto"
       inkscape:stockid="DotS"
       inkscape:isstock="true">
      <path
         transform="matrix(0.2,0,0,0.2,1.48,0.2)"
         style="fill:#00a7ea;fill-opacity:1;fill-rule:evenodd;stroke:#00a7ea;stroke-width:1pt;stroke-opacity:1"
         d="m -2.5,-1 c 0,2.76 -2.24,5 -5,5 -2.76,0 -5,-2.24 -5,-5 0,-2.76 2.24,-5 5,-5 2.76,0 5,2.24 5,5 z"
         id="path1002-3-5" />
    </marker>
    <marker
       style="overflow:visible"
       id="marker1004-9-1-3"
       refX="0"
       refY="0"
       orient="auto"
       inkscape:stockid="DotS"
       inkscape:isstock="true">
      <path
         transform="matrix(0.2,0,0,0.2,1.48,0.2)"
         style="fill:#02a462;fill-opacity:1;fill-rule:evenodd;stroke:#02a462;stroke-width:1pt;stroke-opacity:1"
         d="m -2.5,-1 c 0,2.76 -2.24,5 -5,5 -2.76,0 -5,-2.24 -5,-5 0,-2.76 2.24,-5 5,-5 2.76,0 5,2.24 5,5 z"
         id="path1002-3-7-9" />
    </marker>
    <marker
       style="overflow:visible"
       id="marker1004-9-5"
       refX="0"
       refY="0"
       orient="auto"
       inkscape:stockid="DotS"
       inkscape:isstock="true">
      <path
         transform="matrix(0.2,0,0,0.2,1.48,0.2)"
         style="fill:#00a7ea;fill-opacity:1;fill-rule:evenodd;stroke:#00a7ea;stroke-width:1pt;stroke-opacity:1"
         d="m -2.5,-1 c 0,2.76 -2.24,5 -5,5 -2.76,0 -5,-2.24 -5,-5 0,-2.76 2.24,-5 5,-5 2.76,0 5,2.24 5,5 z"
         id="path1002-3-8" />
    </marker>
    <marker
       style="overflow:visible"
       id="marker1004-9-1-9"
       refX="0"
       refY="0"
       orient="auto"
       inkscape:stockid="DotS"
       inkscape:isstock="true">
      <path
         transform="matrix(0.2,0,0,0.2,1.48,0.2)"
         style="fill:#02a462;fill-opacity:1;fill-rule:evenodd;stroke:#02a462;stroke-width:1pt;stroke-opacity:1"
         d="m -2.5,-1 c 0,2.76 -2.24,5 -5,5 -2.76,0 -5,-2.24 -5,-5 0,-2.76 2.24,-5 5,-5 2.76,0 5,2.24 5,5 z"
         id="path1002-3-7-3" />
    </marker>
    <marker
       style="overflow:visible"
       id="marker911-4"
       refX="0"
       refY="0"
       orient="auto"
       inkscape:stockid="DotS"
       inkscape:isstock="true">
      <path
         transform="matrix(0.2,0,0,0.2,1.48,0.2)"
         style="fill:#00a7ea;fill-opacity:1;fill-rule:evenodd;stroke:#00a7ea;stroke-width:1pt;stroke-opacity:1"
         d="m -2.5,-1 c 0,2.76 -2.24,5 -5,5 -2.76,0 -5,-2.24 -5,-5 0,-2.76 2.24,-5 5,-5 2.76,0 5,2.24 5,5 z"
         id="path909-0" />
    </marker>
    <marker
       style="overflow:visible"
       id="marker1004-9-1-35"
       refX="0"
       refY="0"
       orient="auto"
       inkscape:stockid="DotS"
       inkscape:isstock="true">
      <path
         transform="matrix(0.2,0,0,0.2,1.48,0.2)"
         style="fill:#00a7ea;fill-opacity:1;fill-rule:evenodd;stroke:#00a7ea;stroke-width:1pt;stroke-opacity:1"
         d="m -2.5,-1 c 0,2.76 -2.24,5 -5,5 -2.76,0 -5,-2.24 -5,-5 0,-2.76 2.24,-5 5,-5 2.76,0 5,2.24 5,5 z"
         id="path1002-3-7-0" />
    </marker>
    <marker
       style="overflow:visible"
       id="marker1004-9-1-97"
       refX="0"
       refY="0"
       orient="auto"
       inkscape:stockid="DotS"
       inkscape:isstock="true">
      <path
         transform="matrix(0.2,0,0,0.2,1.48,0.2)"
         style="fill:#00a7ea;fill-opacity:1;fill-rule:evenodd;stroke:#00a7ea;stroke-width:1pt;stroke-opacity:1"
         d="m -2.5,-1 c 0,2.76 -2.24,5 -5,5 -2.76,0 -5,-2.24 -5,-5 0,-2.76 2.24,-5 5,-5 2.76,0 5,2.24 5,5 z"
         id="path1002-3-7-2" />
    </marker>
    <marker
       style="overflow:visible"
       id="marker911-4-0"
       refX="0"
       refY="0"
       orient="auto"
       inkscape:stockid="DotS"
       inkscape:isstock="true">
      <path
         transform="matrix(0.2,0,0,0.2,1.48,0.2)"
         style="fill:#00a7ea;fill-opacity:1;fill-rule:evenodd;stroke:#00a7ea;stroke-width:1pt;stroke-opacity:1"
         d="m -2.5,-1 c 0,2.76 -2.24,5 -5,5 -2.76,0 -5,-2.24 -5,-5 0,-2.76 2.24,-5 5,-5 2.76,0 5,2.24 5,5 z"
         id="path909-0-6" />
    </marker>
    <marker
       style="overflow:visible"
       id="marker1004-9-1-35-6"
       refX="0"
       refY="0"
       orient="auto"
       inkscape:stockid="DotS"
       inkscape:isstock="true">
      <path
         transform="matrix(0.2,0,0,0.2,1.48,0.2)"
         style="fill:#00a7ea;fill-opacity:1;fill-rule:evenodd;stroke:#00a7ea;stroke-width:1pt;stroke-opacity:1"
         d="m -2.5,-1 c 0,2.76 -2.24,5 -5,5 -2.76,0 -5,-2.24 -5,-5 0,-2.76 2.24,-5 5,-5 2.76,0 5,2.24 5,5 z"
         id="path1002-3-7-0-4" />
    </marker>
    <marker
       style="overflow:visible"
       id="marker1004-9-1-35-6-9"
       refX="0"
       refY="0"
       orient="auto"
       inkscape:stockid="DotS"
       inkscape:isstock="true">
      <path
         transform="matrix(0.2,0,0,0.2,1.48,0.2)"
         style="fill:#00a7ea;fill-opacity:1;fill-rule:evenodd;stroke:#00a7ea;stroke-width:1pt;stroke-opacity:1"
         d="m -2.5,-1 c 0,2.76 -2.24,5 -5,5 -2.76,0 -5,-2.24 -5,-5 0,-2.76 2.24,-5 5,-5 2.76,0 5,2.24 5,5 z"
         id="path1002-3-7-0-4-6" />
    </marker>
    <marker
       style="overflow:visible"
       id="marker1004-9-1-35-6-9-0"
       refX="0"
       refY="0"
       orient="auto"
       inkscape:stockid="DotS"
       inkscape:isstock="true">
      <path
         transform="matrix(0.2,0,0,0.2,1.48,0.2)"
         style="fill:#00a7ea;fill-opacity:1;fill-rule:evenodd;stroke:#00a7ea;stroke-width:1pt;stroke-opacity:1"
         d="m -2.5,-1 c 0,2.76 -2.24,5 -5,5 -2.76,0 -5,-2.24 -5,-5 0,-2.76 2.24,-5 5,-5 2.76,0 5,2.24 5,5 z"
         id="path1002-3-7-0-4-6-0" />
    </marker>
    <marker
       style="overflow:visible"
       id="marker1004-9-5-8"
       refX="0"
       refY="0"
       orient="auto"
       inkscape:stockid="DotS"
       inkscape:isstock="true">
      <path
         transform="matrix(0.2,0,0,0.2,1.48,0.2)"
         style="fill:#00a7ea;fill-opacity:1;fill-rule:evenodd;stroke:#00a7ea;stroke-width:1pt;stroke-opacity:1"
         d="m -2.5,-1 c 0,2.76 -2.24,5 -5,5 -2.76,0 -5,-2.24 -5,-5 0,-2.76 2.24,-5 5,-5 2.76,0 5,2.24 5,5 z"
         id="path1002-3-8-3" />
    </marker>
    <marker
       style="overflow:visible"
       id="marker1004-9-5-8-5"
       refX="0"
       refY="0"
       orient="auto"
       inkscape:stockid="DotS"
       inkscape:isstock="true">
      <path
         transform="matrix(0.2,0,0,0.2,1.48,0.2)"
         style="fill:#02a462;fill-opacity:1;fill-rule:evenodd;stroke:#02a462;stroke-width:1pt;stroke-opacity:1"
         d="m -2.5,-1 c 0,2.76 -2.24,5 -5,5 -2.76,0 -5,-2.24 -5,-5 0,-2.76 2.24,-5 5,-5 2.76,0 5,2.24 5,5 z"
         id="path1002-3-8-3-0" />
    </marker>
  </defs>
  <sodipodi:namedview
     id="base"
     pagecolor="#ffffff"
     bordercolor="#666666"
     borderopacity="1.0"
     inkscape:pageopacity="0.0"
     inkscape:pageshadow="2"
     inkscape:zoom="1.6270263"
     inkscape:cx="595.87236"
     inkscape:cy="206.81903"
     inkscape:document-units="mm"
     inkscape:current-layer="layer7"
     inkscape:document-rotation="0"
     showgrid="false"
     inkscape:window-width="2560"
     inkscape:window-height="1387"
     inkscape:window-x="-8"
     inkscape:window-y="-8"
     inkscape:window-maximized="1"
     inkscape:snap-global="true"
     inkscape:snap-midpoints="false"
     inkscape:snap-smooth-nodes="true"
     showguides="true"
     inkscape:guide-bbox="true"
     inkscape:pagecheckerboard="0" />
  <metadata
     id="metadata5">
    <rdf:RDF>
      <cc:Work
         rdf:about="">
        <dc:format>image/svg+xml</dc:format>
        <dc:type
           rdf:resource="http://purl.org/dc/dcmitype/StillImage" />
      </cc:Work>
    </rdf:RDF>
  </metadata>
  <g
     inkscape:groupmode="layer"
     id="layer7"
     inkscape:label="HYDROLIB full logo"
     style="display:inline"
     transform="translate(390.6658,-35.271169)">
    <g
       inkscape:groupmode="layer"
       id="layer21"
       inkscape:label="arrow right S">
      <g
         inkscape:groupmode="layer"
         id="layer19"
         inkscape:label="arrow right start stroke"
         style="display:inline">
        <path
           id="path6785-3-9"
           style="display:inline;opacity:1;vector-effect:none;fill:none;fill-opacity:1;stroke:#ffffff;stroke-width:12.4;stroke-linecap:butt;stroke-linejoin:miter;stroke-miterlimit:4;stroke-dasharray:none;stroke-dashoffset:0;stroke-opacity:1;stop-color:#000000;stop-opacity:1"
           d="m -200.94339,47.699613 c 6.3652,0 12.46969,2.52856 16.97056,7.02944 4.50088,4.50087 7.02944,10.60536 7.02944,16.97056 0,0 0.0839,4.13439 0.12589,8.21278"
           sodipodi:nodetypes="cscc"
           inkscape:export-xdpi="17.049999"
           inkscape:export-ydpi="17.049999"
           inkscape:export-filename="d:\dam_ar\unstruc_plannen\2021\20210000_HYDROLIB\N\I. Promo material\logo\HYDROLIB_logo_monogram_tiny.png" />
      </g>
      <g
         inkscape:groupmode="layer"
         id="layer17"
         inkscape:label="arrow right start"
         style="display:inline">
        <path
           id="path6785-3"
           style="display:inline;opacity:1;vector-effect:none;fill:none;fill-opacity:1;stroke:#02a462;stroke-width:11.6;stroke-linecap:butt;stroke-linejoin:miter;stroke-miterlimit:4;stroke-dasharray:none;stroke-dashoffset:0;stroke-opacity:1;stop-color:#000000;stop-opacity:1"
           d="m -200.94339,47.699613 c 6.3652,0 12.46969,2.52856 16.97056,7.02944 4.50088,4.50087 7.02944,10.60536 7.02944,16.97056 v 8.21278"
           sodipodi:nodetypes="cssc"
           inkscape:export-xdpi="17.049999"
           inkscape:export-ydpi="17.049999"
           inkscape:export-filename="d:\dam_ar\unstruc_plannen\2021\20210000_HYDROLIB\N\I. Promo material\logo\HYDROLIB_logo_monogram_tiny.png" />
      </g>
    </g>
    <g
       inkscape:groupmode="layer"
       id="layer14"
       inkscape:label="arrow left"
       style="display:inline">
      <path
         id="path6608-7-03"
         style="display:inline;fill:#5e5ca3;fill-opacity:1;stroke:#ffffff;stroke-width:0.4;stroke-miterlimit:4;stroke-dasharray:none;stroke-opacity:1;stop-color:#000000"
         d="m -226.8837,86.712533 10.39211,-5.99989 c -3.21539,-5.56922 -3.2151,-12.43124 2.9e-4,-18.00047 3.21451,-5.56767 9.15435,-8.99798 15.58307,-8.99989 l -0.005,5.99992 13.69648,-11.99988 -13.67591,-12.000244 -0.0103,6.000454 c -10.71797,0 -20.62154,5.71783 -25.98052,14.99986 -5.35901,9.28199 -5.35907,20.71805 -8e-5,30.00008 z"
         sodipodi:nodetypes="ccscccccscc"
         inkscape:export-xdpi="17.049999"
         inkscape:export-ydpi="17.049999"
         inkscape:export-filename="d:\dam_ar\unstruc_plannen\2021\20210000_HYDROLIB\N\I. Promo material\logo\HYDROLIB_logo_monogram_tiny.png" />
    </g>
    <g
       inkscape:groupmode="layer"
       id="layer12"
       inkscape:label="arrow bot"
       style="display:inline">
      <path
         id="path6608-5-0"
         style="display:inline;fill:#428eac;fill-opacity:1;stroke:#ffffff;stroke-width:0.4;stroke-miterlimit:4;stroke-dasharray:none;stroke-opacity:1;stop-color:#000000"
         d="m -174.92475,86.707933 -10.39212,-5.99988 c -3.21539,5.56921 -9.15822,8.99997 -15.58901,8.99997 -6.429,0 -12.36965,-3.42891 -15.58567,-8.99539 l 5.19869,-2.99545 -17.24045,-5.86155 -3.55456,17.84381 5.20168,-2.99134 c 5.35899,9.28203 15.26256,14.999857 25.98052,14.999857 10.71794,4e-5 20.6219,-5.717937 25.98089,-14.999967 z"
         sodipodi:nodetypes="ccscccccscc"
         inkscape:export-xdpi="17.049999"
         inkscape:export-ydpi="17.049999"
         inkscape:export-filename="d:\dam_ar\unstruc_plannen\2021\20210000_HYDROLIB\N\I. Promo material\logo\HYDROLIB_logo_monogram_tiny.png" />
    </g>
    <g
       inkscape:groupmode="layer"
       id="layer22"
       inkscape:label="arrow right E"
       style="display:inline">
      <g
         inkscape:groupmode="layer"
         id="layer20"
         inkscape:label="arrow right end stroke"
         style="display:inline">
        <path
           id="path6785-8"
           style="display:inline;opacity:1;vector-effect:none;fill:none;fill-opacity:1;stroke:#ffffff;stroke-width:12.4;stroke-linecap:butt;stroke-linejoin:miter;stroke-miterlimit:4;stroke-dasharray:none;stroke-dashoffset:0;stroke-opacity:1;stop-color:#000000;stop-opacity:1"
           d="m -176.94339,74.482783 c 0,0 0.0209,3.46788 0,7.54628 -0.0209,4.0784 0,13.75681 0,16.2576 0,4.199617 1.37071,5.284537 5.5771,5.284537 l 14.53651,0.0107"
           sodipodi:nodetypes="csscc"
           inkscape:export-xdpi="17.049999"
           inkscape:export-ydpi="17.049999"
           inkscape:export-filename="d:\dam_ar\unstruc_plannen\2021\20210000_HYDROLIB\N\I. Promo material\logo\HYDROLIB_logo_monogram_tiny.png" />
      </g>
      <g
         inkscape:groupmode="layer"
         id="layer10"
         inkscape:label="arrow right head"
         style="display:inline">
        <path
           style="display:inline;fill:#02a462;fill-opacity:1;stroke:#ffffff;stroke-width:0.4;stroke-linecap:butt;stroke-linejoin:miter;stroke-miterlimit:4;stroke-dasharray:none;stroke-opacity:1"
           d="m -156.99503,115.58197 13.69648,-11.99989 -13.67592,-12.000237 -0.0103,12.000057 z"
           id="path6791"
           sodipodi:nodetypes="ccccc"
           inkscape:export-xdpi="17.049999"
           inkscape:export-ydpi="17.049999"
           inkscape:export-filename="d:\dam_ar\unstruc_plannen\2021\20210000_HYDROLIB\N\I. Promo material\logo\HYDROLIB_logo_monogram_tiny.png" />
      </g>
      <g
         inkscape:groupmode="layer"
         id="layer18"
         inkscape:label="arrow right end"
         style="display:inline">
        <path
           id="path6785"
           style="display:inline;opacity:1;vector-effect:none;fill:none;fill-opacity:1;stroke:#02a462;stroke-width:11.6;stroke-linecap:butt;stroke-linejoin:miter;stroke-miterlimit:4;stroke-dasharray:none;stroke-dashoffset:0;stroke-opacity:1;stop-color:#000000;stop-opacity:1"
           d="m -176.94339,73.816283 v 8.21278 c 0,0 0,13.75681 0,16.2576 0,4.199617 1.37071,5.284537 5.5771,5.284537 l 14.91069,0.0107"
           sodipodi:nodetypes="ccscc"
           inkscape:export-xdpi="17.049999"
           inkscape:export-ydpi="17.049999"
           inkscape:export-filename="d:\dam_ar\unstruc_plannen\2021\20210000_HYDROLIB\N\I. Promo material\logo\HYDROLIB_logo_monogram_tiny.png" />
      </g>
    </g>
    <g
       aria-label="HYDR"
       id="text6752-0"
       style="font-weight:bold;font-size:50.8px;line-height:1.25;-inkscape-font-specification:'sans-serif, Bold';display:inline;stroke-width:0.265;stroke:#ffffff;stroke-opacity:1;stroke-miterlimit:4;stroke-dasharray:none">
      <path
         d="m -357.55154,90.235931 h -9.525 V 73.964057 h -14.06426 v 16.271874 h -9.525 V 53.301752 h 9.525 v 13.518555 h 14.06426 V 53.301752 h 9.525 z"
         id="path1235"
         style="stroke:#ffffff;stroke-opacity:1;stroke-width:0.265;stroke-miterlimit:4;stroke-dasharray:none" />
      <path
         d="m -315.63162,53.301752 -13.61778,22.64668 v 14.287499 h -9.525 V 76.394916 l -13.84101,-23.093164 h 10.81484 l 7.98711,14.2875 7.71426,-14.2875 z"
         id="path1237"
         style="stroke:#ffffff;stroke-opacity:1;stroke-width:0.265;stroke-miterlimit:4;stroke-dasharray:none" />
      <path
         d="m -275.7953,71.806049 q 0,5.159375 -2.35645,9.252148 -2.35644,4.067969 -5.95312,6.250781 -2.70371,1.63711 -5.92832,2.282032 -3.22461,0.644921 -7.63984,0.644921 H -310.6955 V 53.301752 h 13.39454 q 4.51445,0 7.78867,0.768946 3.27422,0.74414 5.50664,2.133203 3.81992,2.33164 6.00273,6.30039 2.20762,3.943945 2.20762,9.301758 z m -9.84746,-0.07441 q 0,-3.646289 -1.33945,-6.225977 -1.31465,-2.604492 -4.192,-4.067968 -1.46347,-0.719336 -3.00136,-0.967383 -1.51309,-0.272852 -4.58887,-0.272852 h -2.40606 v 23.117969 h 2.40606 q 3.39824,0 4.98574,-0.297657 1.5875,-0.32246 3.10059,-1.141015 2.60449,-1.488281 3.81992,-3.96875 1.21543,-2.505274 1.21543,-6.176367 z"
         id="path1239"
         style="stroke:#ffffff;stroke-opacity:1;stroke-width:0.265;stroke-miterlimit:4;stroke-dasharray:none" />
      <path
         d="m -247.81561,64.61269 q 0,-1.389063 -0.57051,-2.38125 -0.57051,-0.992188 -1.95957,-1.562696 -0.96738,-0.396875 -2.25723,-0.471289 -1.28984,-0.09922 -3.00136,-0.09922 h -3.44786 v 9.946679 h 2.92696 q 2.28203,0 3.81992,-0.223242 1.53789,-0.223242 2.57969,-1.016992 0.99218,-0.768946 1.43867,-1.686719 0.47129,-0.942578 0.47129,-2.505273 z m 14.858,25.623241 H -244.591 l -10.07071,-13.543359 h -4.39043 v 13.543359 h -9.47539 V 53.301752 h 15.97422 q 3.27422,0 5.63067,0.372071 2.35644,0.37207 4.41523,1.612304 2.08359,1.240235 3.29902,3.22461 1.24024,1.95957 1.24024,4.936132 0,4.092774 -1.90996,6.672461 -1.88516,2.579688 -5.40743,4.291211 z"
         id="path1241"
         style="stroke:#ffffff;stroke-opacity:1;stroke-width:0.265;stroke-miterlimit:4;stroke-dasharray:none" />
    </g>
    <text
       xml:space="preserve"
       style="font-style:normal;font-weight:normal;font-size:10.5833px;line-height:1.25;font-family:sans-serif;fill:#000000;fill-opacity:1;stroke:none;stroke-width:0.264583"
       x="-144.99167"
       y="137.58333"
       id="text6833"><tspan
         sodipodi:role="line"
         id="tspan6831"
         x="-144.99167"
         y="137.58333"
         style="stroke-width:0.264583" /></text>
    <g
       aria-label="LIB"
       id="text6752-0-8"
       style="font-weight:bold;font-size:50.8px;line-height:1.25;-inkscape-font-specification:'sans-serif, Bold';display:inline;stroke-width:0.264583;stroke:#ffffff;stroke-opacity:1">
      <path
         d="m -140.25009,90.235931 h -26.64023 V 53.301752 h 9.525 v 29.79043 h 17.11523 z"
         id="path1281"
         style="stroke:#ffffff;stroke-opacity:1" />
      <path
         d="m -114.55243,90.235931 h -21.62969 v -6.548437 h 6.05235 V 59.85019 h -6.05235 v -6.548438 h 21.62969 v 6.548438 h -6.05234 v 23.837304 h 6.05234 z"
         id="path1283"
         style="stroke:#ffffff;stroke-opacity:1" />
      <path
         d="m -75.187391,78.924994 q 0,2.678906 -1.091407,4.787305 -1.066601,2.108398 -2.951757,3.497461 -2.182813,1.637109 -4.81211,2.33164 -2.604492,0.694531 -6.622851,0.694531 H -106.78856 V 53.301752 h 14.337106 q 4.464844,0 6.523633,0.297657 2.083594,0.297656 4.117578,1.314648 2.108398,1.066601 3.125391,2.877344 1.041797,1.785937 1.041797,4.092773 0,2.678906 -1.413868,4.737695 -1.413867,2.033985 -3.993554,3.175 v 0.198438 q 3.621484,0.719336 5.729882,2.976562 2.133204,2.257227 2.133204,5.953125 z M -87.391298,63.744526 q 0,-0.917774 -0.471289,-1.835547 -0.446484,-0.917774 -1.612304,-1.364258 -1.041797,-0.396875 -2.604492,-0.42168 -1.537891,-0.04961 -4.340821,-0.04961 h -0.892968 v 7.813476 h 1.488281 q 2.257226,0 3.844726,-0.07441 1.5875,-0.07441 2.505274,-0.496094 1.289844,-0.570507 1.686718,-1.463476 0.396875,-0.917773 0.396875,-2.108398 z m 2.331641,15.03164 q 0,-1.761133 -0.694531,-2.703711 -0.669727,-0.967383 -2.306836,-1.438672 -1.116211,-0.322461 -3.075781,-0.347265 -1.959571,-0.02481 -4.092774,-0.02481 h -2.083593 v 9.202539 h 0.694531 q 4.018359,0 5.754687,-0.02481 1.736328,-0.02481 3.199805,-0.644922 1.488281,-0.620117 2.033984,-1.637109 0.570508,-1.041797 0.570508,-2.38125 z"
         id="path1285"
         style="stroke:#ffffff;stroke-opacity:1" />
    </g>
  </g>
</svg>
